<svg width="8" height="16" viewBox="0 0 8 16" fill="none" xmlns="http://www.w3.org/2000/svg">
<g clip-path="url(#clip0_172_463)">
<path fill-rule="evenodd" clip-rule="evenodd" d="M4.18509 15.6306C6.29387 15.6306 8.00031 13.9241 8.00031 11.8153V3.83807H6.95979V11.8153C6.95979 13.3484 5.71811 14.59 4.18509 14.59C2.65207 14.59 1.41039 13.3484 1.41039 11.8153V3.14439C1.41039 2.18712 2.1873 1.4102 3.14458 1.4102C4.10185 1.4102 4.87877 2.18712 4.87877 3.14439V10.428C4.87877 10.8095 4.56661 11.1217 4.18509 11.1217C3.80357 11.1217 3.49141 10.8095 3.49141 10.428V3.83807H2.4509V10.428C2.4509 11.3853 3.22782 12.1622 4.18509 12.1622C5.14236 12.1622 5.91928 11.3853 5.91928 10.428V3.14439C5.91928 1.61137 4.6776 0.36969 3.14458 0.36969C1.61155 0.36969 0.369873 1.61137 0.369873 3.14439V11.8153C0.369873 13.9241 2.07632 15.6306 4.18509 15.6306Z" fill="#7C7C7C"/>
</g>
<defs>
<clipPath id="clip0_172_463">
<rect width="7.63043" height="15.2609" fill="white" transform="translate(0.369873 0.36969)"/>
</clipPath>
</defs>
</svg>
