<svg width="16" height="16" viewBox="0 0 16 16" fill="none" xmlns="http://www.w3.org/2000/svg">
<g clip-path="url(#clip0_172_459)">
<path d="M2.64721 2.75425V0.846596C2.64721 0.582966 2.86049 0.36969 3.12418 0.36969C3.38775 0.36969 3.60102 0.582966 3.60102 0.846596V2.75425C3.60102 3.01782 3.38775 3.2311 3.12418 3.2311C2.86049 3.23113 2.64721 3.01782 2.64721 2.75425ZM10.7546 3.23113C11.0181 3.23113 11.2315 3.01785 11.2315 2.75428V0.846596C11.2315 0.582966 11.0181 0.36969 10.7546 0.36969C10.491 0.36969 10.2776 0.582966 10.2776 0.846596V2.75425C10.2776 3.01782 10.491 3.23113 10.7546 3.23113ZM16.0004 11.8152C16.0004 13.9224 14.2922 15.6306 12.1852 15.6306C10.0784 15.6306 8.37004 13.9224 8.37004 11.8152C8.37004 9.70841 10.0784 8.00012 12.1852 8.00012C14.2922 8.00012 16.0004 9.70838 16.0004 11.8152ZM15.0467 11.8152C15.0467 10.2376 13.7632 8.95387 12.1853 8.95387C10.6074 8.95387 9.32388 10.2376 9.32388 11.8152C9.32388 13.3932 10.6074 14.6767 12.1853 14.6767C13.7632 14.6767 15.0467 13.3932 15.0467 11.8152ZM4.55487 6.09253H2.64721V8.00012H4.55487V6.09253ZM2.64721 10.8616H4.55487V8.95387H2.64721V10.8616ZM5.50861 8.00012H7.4163V6.09253H5.50861V8.00012ZM5.50861 10.8616H7.4163V8.95387H5.50861V10.8616ZM1.69347 11.7204V5.13869H12.1853V7.04634H13.1391V3.32617C13.1391 2.7468 12.677 2.27728 12.1061 2.27728H11.7083V2.75428C11.7083 3.27956 11.2807 3.70806 10.7547 3.70806C10.2284 3.70806 9.80085 3.27956 9.80085 2.75428V2.27728H4.0779V2.75428C4.0779 3.27956 3.65037 3.70806 3.12421 3.70806C2.59793 3.70806 2.17037 3.27956 2.17037 2.75428V2.27728H1.77307C1.20216 2.27728 0.739624 2.7468 0.739624 3.32617V11.7205C0.739624 12.2979 1.20216 12.7692 1.77307 12.7692H7.4163V11.8153H1.77307C1.72986 11.8152 1.69347 11.7706 1.69347 11.7204ZM10.2776 8.00012V6.09253H8.37007V8.00012H10.2776ZM13.616 11.8152H12.1852V10.3845C12.1852 10.121 11.9719 9.90775 11.7083 9.90775C11.4447 9.90775 11.2315 10.121 11.2315 10.3845V12.2923C11.2315 12.5558 11.4447 12.7692 11.7083 12.7692H13.616C13.8796 12.7692 14.0929 12.5558 14.0929 12.2923C14.0929 12.0287 13.8796 11.8152 13.616 11.8152Z" fill="#7C7C7C"/>
</g>
<defs>
<clipPath id="clip0_172_459">
<rect width="15.2609" height="15.2609" fill="white" transform="translate(0.739502 0.36969)"/>
</clipPath>
</defs>
</svg>
