<svg width="599" height="113" viewBox="0 0 599 113" fill="none" xmlns="http://www.w3.org/2000/svg">
<path d="M-1.59358e-05 111.41C-1.16369e-05 111.962 0.447704 112.41 0.999984 112.41L9.99999 112.41C10.5523 112.41 11 111.962 11 111.41C11 110.858 10.5523 110.41 9.99999 110.41L1.99999 110.41L1.99999 102.41C1.99999 101.858 1.55227 101.41 0.99999 101.41C0.447699 101.41 -1.54722e-05 101.858 -1.10889e-05 102.41L-1.59358e-05 111.41ZM106.293 4.70305L104.898 6.09779L106.312 7.512L107.707 6.11726L106.293 4.70305ZM102.109 8.88726L99.3192 11.6767L100.733 13.0909L103.523 10.3015L102.109 8.88726ZM96.5297 14.4662L93.7403 17.2557L95.1545 18.6699L97.9439 15.8804L96.5297 14.4662ZM90.9508 20.0452L88.1613 22.8346L89.5755 24.2488L92.365 21.4594L90.9508 20.0452ZM85.3718 25.6241L82.5824 28.4136L83.9966 29.8278L86.7861 27.0383L85.3718 25.6241ZM79.7929 31.2031L77.0034 33.9925L78.4176 35.4067L81.2071 32.6173L79.7929 31.2031ZM74.2139 36.782L71.4245 39.5715L72.8387 40.9857L75.6282 38.1962L74.2139 36.782ZM68.635 42.3609L65.8455 45.1504L67.2597 46.5646L70.0492 43.7752L68.635 42.3609ZM63.056 47.9399L60.2666 50.7294L61.6808 52.1436L64.4703 49.3541L63.056 47.9399ZM57.4771 53.5188L54.6876 56.3083L56.1018 57.7225L58.8913 54.9331L57.4771 53.5188ZM51.8981 59.0978L49.1087 61.8873L50.5229 63.3015L53.3124 60.512L51.8981 59.0978ZM46.3192 64.6768L43.5297 67.4662L44.9439 68.8804L47.7334 66.091L46.3192 64.6768ZM40.7402 70.2557L37.9508 73.0452L39.365 74.4594L42.1544 71.6699L40.7402 70.2557ZM35.1613 75.8347L32.3718 78.6241L33.786 80.0384L36.5755 77.2489L35.1613 75.8347ZM29.5823 81.4136L26.7929 84.2031L28.2071 85.6173L30.9965 82.8278L29.5823 81.4136ZM24.0034 86.9926L21.2139 89.782L22.6281 91.1963L25.4176 88.4068L24.0034 86.9926ZM18.4244 92.5715L15.6349 95.361L17.0492 96.7752L19.8386 93.9857L18.4244 92.5715ZM12.8455 98.1505L10.056 100.94L11.4702 102.354L14.2597 99.5647L12.8455 98.1505ZM7.26652 103.729L4.47704 106.519L5.89125 107.933L8.68073 105.144L7.26652 103.729ZM1.68756 109.308L0.292878 110.703L1.70709 112.117L3.10178 110.723L1.68756 109.308ZM-1.59358e-05 111.41C-1.16369e-05 111.962 0.447704 112.41 0.999984 112.41L9.99999 112.41C10.5523 112.41 11 111.962 11 111.41C11 110.858 10.5523 110.41 9.99999 110.41L1.99999 110.41L1.99999 102.41C1.99999 101.858 1.55227 101.41 0.99999 101.41C0.447699 101.41 -1.54722e-05 101.858 -1.10889e-05 102.41L-1.59358e-05 111.41ZM106.293 4.70305L104.898 6.09779L106.312 7.512L107.707 6.11726L106.293 4.70305ZM102.109 8.88726L99.3192 11.6767L100.733 13.0909L103.523 10.3015L102.109 8.88726ZM96.5297 14.4662L93.7403 17.2557L95.1545 18.6699L97.9439 15.8804L96.5297 14.4662ZM90.9508 20.0452L88.1613 22.8346L89.5755 24.2488L92.365 21.4594L90.9508 20.0452ZM85.3718 25.6241L82.5824 28.4136L83.9966 29.8278L86.7861 27.0383L85.3718 25.6241ZM79.7929 31.2031L77.0034 33.9925L78.4176 35.4067L81.2071 32.6173L79.7929 31.2031ZM74.2139 36.782L71.4245 39.5715L72.8387 40.9857L75.6282 38.1962L74.2139 36.782ZM68.635 42.3609L65.8455 45.1504L67.2597 46.5646L70.0492 43.7752L68.635 42.3609ZM63.056 47.9399L60.2666 50.7294L61.6808 52.1436L64.4703 49.3541L63.056 47.9399ZM57.4771 53.5188L54.6876 56.3083L56.1018 57.7225L58.8913 54.9331L57.4771 53.5188ZM51.8981 59.0978L49.1087 61.8873L50.5229 63.3015L53.3124 60.512L51.8981 59.0978ZM46.3192 64.6768L43.5297 67.4662L44.9439 68.8804L47.7334 66.091L46.3192 64.6768ZM40.7402 70.2557L37.9508 73.0452L39.365 74.4594L42.1544 71.6699L40.7402 70.2557ZM35.1613 75.8347L32.3718 78.6241L33.786 80.0384L36.5755 77.2489L35.1613 75.8347ZM29.5823 81.4136L26.7929 84.2031L28.2071 85.6173L30.9965 82.8278L29.5823 81.4136ZM24.0034 86.9926L21.2139 89.782L22.6281 91.1963L25.4176 88.4068L24.0034 86.9926ZM18.4244 92.5715L15.6349 95.361L17.0492 96.7752L19.8386 93.9857L18.4244 92.5715ZM12.8455 98.1505L10.056 100.94L11.4702 102.354L14.2597 99.5647L12.8455 98.1505ZM7.26652 103.729L4.47704 106.519L5.89125 107.933L8.68073 105.144L7.26652 103.729ZM1.68756 109.308L0.292878 110.703L1.70709 112.117L3.10178 110.723L1.68756 109.308Z" fill="black"/>
<path d="M295.293 112.707C295.683 113.098 296.317 113.098 296.707 112.707L303.071 106.343C303.462 105.953 303.462 105.319 303.071 104.929C302.681 104.538 302.047 104.538 301.657 104.929L296 110.586L290.343 104.929C289.953 104.538 289.319 104.538 288.929 104.929C288.538 105.319 288.538 105.953 288.929 106.343L295.293 112.707ZM295 1L295 2.98214L297 2.98214L297 1L295 1ZM295 6.94643L295 10.9107L297 10.9107L297 6.94643L295 6.94643ZM295 14.875L295 18.8393L297 18.8393L297 14.875L295 14.875ZM295 22.8036L295 26.7679L297 26.7679L297 22.8036L295 22.8036ZM295 30.7321L295 34.6964L297 34.6964L297 30.7321L295 30.7321ZM295 38.6607L295 42.625L297 42.625L297 38.6607L295 38.6607ZM295 46.5893L295 50.5536L297 50.5536L297 46.5893L295 46.5893ZM295 54.5179L295 58.4821L297 58.4821L297 54.5179L295 54.5179ZM295 62.4464L295 66.4107L297 66.4107L297 62.4464L295 62.4464ZM295 70.375L295 74.3393L297 74.3393L297 70.375L295 70.375ZM295 78.3036L295 82.2679L297 82.2679L297 78.3036L295 78.3036ZM295 86.2322L295 90.1964L297 90.1964L297 86.2322L295 86.2322ZM295 94.1607L295 98.125L297 98.125L297 94.1607L295 94.1607ZM295 102.089L295 106.054L297 106.054L297 102.089L295 102.089ZM295 110.018L295 112L297 112L297 110.018L295 110.018ZM295.293 112.707C295.683 113.098 296.317 113.098 296.707 112.707L303.071 106.343C303.462 105.953 303.462 105.319 303.071 104.929C302.681 104.538 302.047 104.538 301.657 104.929L296 110.586L290.343 104.929C289.953 104.538 289.319 104.538 288.929 104.929C288.538 105.319 288.538 105.953 288.929 106.343L295.293 112.707ZM295 1L295 2.98214L297 2.98214L297 1L295 1ZM295 6.94643L295 10.9107L297 10.9107L297 6.94643L295 6.94643ZM295 14.875L295 18.8393L297 18.8393L297 14.875L295 14.875ZM295 22.8036L295 26.7679L297 26.7679L297 22.8036L295 22.8036ZM295 30.7321L295 34.6964L297 34.6964L297 30.7321L295 30.7321ZM295 38.6607L295 42.625L297 42.625L297 38.6607L295 38.6607ZM295 46.5893L295 50.5536L297 50.5536L297 46.5893L295 46.5893ZM295 54.5179L295 58.4821L297 58.4821L297 54.5179L295 54.5179ZM295 62.4464L295 66.4107L297 66.4107L297 62.4464L295 62.4464ZM295 70.375L295 74.3393L297 74.3393L297 70.375L295 70.375ZM295 78.3036L295 82.2679L297 82.2679L297 78.3036L295 78.3036ZM295 86.2322L295 90.1964L297 90.1964L297 86.2322L295 86.2322ZM295 94.1607L295 98.125L297 98.125L297 94.1607L295 94.1607ZM295 102.089L295 106.054L297 106.054L297 102.089L295 102.089ZM295 110.018L295 112L297 112L297 110.018L295 110.018Z" fill="black"/>
<path d="M598 113.008C598.552 113.008 599 112.56 599 112.008L599 103.008C599 102.456 598.552 102.008 598 102.008C597.448 102.008 597 102.456 597 103.008L597 111.008L589 111.008C588.448 111.008 588 111.456 588 112.008C588 112.56 588.448 113.008 589 113.008L598 113.008ZM486.293 1.71492L487.68 3.10242L489.095 1.68821L487.707 0.300706L486.293 1.71492ZM490.455 5.87742L493.23 8.65242L494.645 7.23821L491.87 4.46321L490.455 5.87742ZM496.005 11.4274L498.78 14.2024L500.195 12.7882L497.42 10.0132L496.005 11.4274ZM501.555 16.9774L504.33 19.7524L505.745 18.3382L502.97 15.5632L501.555 16.9774ZM507.105 22.5274L509.88 25.3024L511.295 23.8882L508.52 21.1132L507.105 22.5274ZM512.655 28.0774L515.43 30.8524L516.845 29.4382L514.07 26.6632L512.655 28.0774ZM518.205 33.6274L520.98 36.4024L522.395 34.9882L519.62 32.2132L518.205 33.6274ZM523.755 39.1774L526.53 41.9524L527.945 40.5382L525.17 37.7632L523.755 39.1774ZM529.305 44.7274L532.08 47.5024L533.495 46.0882L530.72 43.3132L529.305 44.7274ZM534.855 50.2774L537.63 53.0524L539.045 51.6382L536.27 48.8632L534.855 50.2774ZM540.405 55.8274L543.18 58.6024L544.595 57.1882L541.82 54.4132L540.405 55.8274ZM545.955 61.3774L548.73 64.1524L550.145 62.7382L547.37 59.9632L545.955 61.3774ZM551.505 66.9274L554.28 69.7024L555.695 68.2882L552.92 65.5132L551.505 66.9274ZM557.055 72.4774L559.83 75.2524L561.245 73.8382L558.47 71.0632L557.055 72.4774ZM562.605 78.0274L565.38 80.8024L566.795 79.3882L564.02 76.6132L562.605 78.0274ZM568.155 83.5775L570.93 86.3525L572.345 84.9382L569.57 82.1632L568.155 83.5775ZM573.705 89.1275L576.48 91.9025L577.895 90.4882L575.12 87.7132L573.705 89.1275ZM579.255 94.6775L582.03 97.4525L583.445 96.0382L580.67 93.2632L579.255 94.6775ZM584.805 100.227L587.58 103.002L588.995 101.588L586.22 98.8132L584.805 100.227ZM590.355 105.777L593.13 108.552L594.545 107.138L591.77 104.363L590.355 105.777ZM595.905 111.327L597.293 112.715L598.707 111.301L597.32 109.913L595.905 111.327ZM598 113.008C598.552 113.008 599 112.56 599 112.008L599 103.008C599 102.456 598.552 102.008 598 102.008C597.448 102.008 597 102.456 597 103.008L597 111.008L589 111.008C588.448 111.008 588 111.456 588 112.008C588 112.56 588.448 113.008 589 113.008L598 113.008ZM486.293 1.71492L487.68 3.10242L489.095 1.68821L487.707 0.300706L486.293 1.71492ZM490.455 5.87742L493.23 8.65242L494.645 7.23821L491.87 4.46321L490.455 5.87742ZM496.005 11.4274L498.78 14.2024L500.195 12.7882L497.42 10.0132L496.005 11.4274ZM501.555 16.9774L504.33 19.7524L505.745 18.3382L502.97 15.5632L501.555 16.9774ZM507.105 22.5274L509.88 25.3024L511.295 23.8882L508.52 21.1132L507.105 22.5274ZM512.655 28.0774L515.43 30.8524L516.845 29.4382L514.07 26.6632L512.655 28.0774ZM518.205 33.6274L520.98 36.4024L522.395 34.9882L519.62 32.2132L518.205 33.6274ZM523.755 39.1774L526.53 41.9524L527.945 40.5382L525.17 37.7632L523.755 39.1774ZM529.305 44.7274L532.08 47.5024L533.495 46.0882L530.72 43.3132L529.305 44.7274ZM534.855 50.2774L537.63 53.0524L539.045 51.6382L536.27 48.8632L534.855 50.2774ZM540.405 55.8274L543.18 58.6024L544.595 57.1882L541.82 54.4132L540.405 55.8274ZM545.955 61.3774L548.73 64.1524L550.145 62.7382L547.37 59.9632L545.955 61.3774ZM551.505 66.9274L554.28 69.7024L555.695 68.2882L552.92 65.5132L551.505 66.9274ZM557.055 72.4774L559.83 75.2524L561.245 73.8382L558.47 71.0632L557.055 72.4774ZM562.605 78.0274L565.38 80.8024L566.795 79.3882L564.02 76.6132L562.605 78.0274ZM568.155 83.5775L570.93 86.3525L572.345 84.9382L569.57 82.1632L568.155 83.5775ZM573.705 89.1275L576.48 91.9025L577.895 90.4882L575.12 87.7132L573.705 89.1275ZM579.255 94.6775L582.03 97.4525L583.445 96.0382L580.67 93.2632L579.255 94.6775ZM584.805 100.227L587.58 103.002L588.995 101.588L586.22 98.8132L584.805 100.227ZM590.355 105.777L593.13 108.552L594.545 107.138L591.77 104.363L590.355 105.777ZM595.905 111.327L597.293 112.715L598.707 111.301L597.32 109.913L595.905 111.327Z" fill="black"/>
</svg>
